<?xml version="1.0" encoding="UTF-8"?>
<!-- Generated by Pixelmator Pro 3.6.17 -->
<svg width="400" height="400" viewBox="0 0 400 400" xmlns="http://www.w3.org/2000/svg">
    <path id="Path" fill="#836ef9" stroke="none" d="M 199.733337 45 C 170.111786 45 97.157433 117.840607 97.157433 147.418518 C 97.157433 176.995926 170.111786 249.838043 199.733337 249.838043 C 229.354874 249.838043 302.310272 176.994888 302.310272 147.418518 C 302.310272 117.841644 229.3564 45 199.733337 45 Z M 183.748718 205.984436 C 171.257431 202.58606 137.673843 143.929901 141.078461 131.457733 C 144.482574 118.985535 203.227676 85.454041 215.718979 88.85318 C 228.21077 92.251831 261.794373 150.906586 258.38974 163.379303 C 254.985626 175.85202 196.240005 209.383865 183.748718 205.984436 Z"/>
    <path id="path1" fill="#ffffff" stroke="none" d="M 47.275333 343.382111 L 47.275333 343.364685 L 20.007589 293.148407 C 19.470819 292.160278 17.987436 292.397064 17.786001 293.503052 L 4.206277 368.082581 C 4.07319 368.813385 4.635554 369.485779 5.379539 369.485779 L 15.886103 369.485779 C 16.462616 369.485779 16.956564 369.074249 17.059437 368.507935 L 24.967642 324.992065 L 46.224003 365.453949 C 46.670616 366.304199 47.889435 366.304199 48.336102 365.453949 L 69.592308 324.992065 L 77.500511 368.507935 C 77.603592 369.074249 78.097435 369.485779 78.673843 369.485779 L 89.180511 369.485779 C 89.924614 369.485779 90.486664 368.813385 90.353844 368.082581 L 76.773842 293.503052 C 76.572823 292.397064 75.089233 292.160278 74.552307 293.148407 L 47.275333 343.382111 Z"/>
    <path id="path2" fill="#ffffff" stroke="none" d="M 134.532318 294.554199 C 112.902565 294.554199 95.958977 311.336517 95.958977 332.765167 C 95.958977 354.193298 112.902565 370.985352 134.532318 370.985352 C 156.105637 370.985352 173.007187 354.198425 173.007187 332.765167 C 173.007187 311.331909 156.105637 294.554199 134.532318 294.554199 Z M 134.532318 358.190796 C 120.427177 358.190796 109.376411 347.020874 109.376411 332.765167 C 109.376411 318.508942 120.427177 307.348755 134.532318 307.348755 C 148.581024 307.348755 159.589752 318.51355 159.589752 332.765167 C 159.589752 347.016235 148.581024 358.190796 134.532318 358.190796 Z"/>
    <path id="path3" fill="#ffffff" stroke="none" d="M 232.457947 341.529938 L 187.228729 292.922394 C 186.491272 292.129578 185.162567 292.650757 185.162567 293.732635 L 185.162567 368.295776 C 185.162567 368.953308 185.696411 369.486298 186.355377 369.486298 L 197.28923 369.486298 C 197.948196 369.486298 198.48204 368.953308 198.48204 368.295776 L 198.48204 323.916321 L 243.611282 372.615631 C 244.347702 373.410522 245.67897 372.89032 245.67897 371.806915 L 245.67897 297.243774 C 245.67897 296.586243 245.145126 296.053253 244.48616 296.053253 L 233.650253 296.053253 C 232.991791 296.053253 232.457947 296.586243 232.457947 297.243774 L 232.457947 341.529938 Z"/>
    <path id="path4" fill="#ffffff" stroke="none" d="M 257.273834 369.486816 L 269.014374 369.486816 C 269.479492 369.486816 269.902069 369.216705 270.096924 368.794952 L 278.892303 349.776581 L 307.017426 349.776581 L 315.614349 368.786224 C 315.80719 369.212646 316.232819 369.486816 316.701538 369.486816 L 329.440491 369.486816 C 330.320007 369.486816 330.896942 368.56842 330.513855 367.778137 L 294.430786 293.219635 C 293.996918 292.322754 292.717438 292.322754 292.2836 293.219635 L 256.200012 367.778137 C 255.817429 368.56842 256.394348 369.486816 257.273834 369.486816 Z M 284.40564 337.976776 L 293.146667 319.036835 L 301.723602 337.976776 L 284.40564 337.976776 Z"/>
    <path id="path5" fill="#ffffff" stroke="none" d="M 359.013824 296.052734 L 340.971283 296.052734 C 340.312317 296.052734 339.778442 296.585754 339.778442 297.243774 L 339.778442 368.295776 C 339.778442 368.953308 340.312317 369.486298 340.971283 369.486298 L 359.013824 369.486298 C 381.38205 369.486298 395.281555 355.416626 395.281555 332.764648 C 395.281555 310.112671 381.38205 296.052734 359.013824 296.052734 Z M 359.013824 356.887512 L 353.195892 356.887512 L 353.195892 308.553131 L 359.013824 308.553131 C 373.534882 308.553131 381.864105 317.378876 381.864105 332.764648 C 381.864105 348.095062 373.534882 356.887512 359.013824 356.887512 Z"/>
</svg>
