<?xml version="1.0" encoding="UTF-8"?>
<!-- Generated by Pixelmator Pro 3.6.17 -->
<svg width="400" height="399" viewBox="0 0 400 399" xmlns="http://www.w3.org/2000/svg">
    <path id="Path" fill="#836ef9" stroke="none" d="M 198.086227 37 C 168.080002 37 94.178177 110.728882 94.178177 140.667511 C 94.178177 170.605637 168.080002 244.336075 198.086227 244.336075 C 228.092468 244.336075 301.995331 170.604584 301.995331 140.667511 C 301.995331 110.72995 228.094025 37 198.086227 37 Z M 181.894012 199.947662 C 169.240524 196.507843 135.220779 137.136383 138.669601 124.512085 C 142.11792 111.887787 201.625977 77.947388 214.279465 81.388 C 226.933502 84.828094 260.953247 144.198135 257.504425 156.822952 C 254.056107 169.447769 194.546997 203.38855 181.894012 199.947662 Z"/>
    <path id="path1" fill="#000000" stroke="none" d="M 43.648209 339.020935 L 43.648209 339.003265 L 16.026337 288.174622 C 15.482598 287.174438 13.979948 287.414093 13.775896 288.533569 L 0.019831 364.022583 C -0.114983 364.762329 0.454685 365.442932 1.208348 365.442932 L 11.851324 365.442932 C 12.435325 365.442932 12.935688 365.026367 13.039896 364.453156 L 21.050858 320.406616 L 42.583271 361.361938 C 43.03569 362.222534 44.27034 362.222534 44.722752 361.361938 L 66.255066 320.406616 L 74.265976 364.453156 C 74.370392 365.026367 74.870644 365.442932 75.454544 365.442932 L 86.097656 365.442932 C 86.851433 365.442932 87.420784 364.762329 87.28624 364.022583 L 73.529869 288.533569 C 73.326233 287.414093 71.82338 287.174438 71.27948 288.174622 L 43.648209 339.020935 Z"/>
    <path id="path2" fill="#000000" stroke="none" d="M 132.038437 289.597534 C 110.127792 289.597534 92.964149 306.584534 92.964149 328.274475 C 92.964149 349.963928 110.127792 366.960785 132.038437 366.960785 C 153.891953 366.960785 171.01297 349.969147 171.01297 328.274475 C 171.01297 306.579865 153.891953 289.597534 132.038437 289.597534 Z M 132.038437 354.010193 C 117.75013 354.010193 106.55584 342.704041 106.55584 328.274475 C 106.55584 313.844421 117.75013 302.548126 132.038437 302.548126 C 146.269608 302.548126 157.421295 313.849091 157.421295 328.274475 C 157.421295 342.699371 146.269608 354.010193 132.038437 354.010193 Z"/>
    <path id="path3" fill="#000000" stroke="none" d="M 231.235855 337.146149 L 185.41922 287.945831 C 184.672211 287.143341 183.326233 287.670898 183.326233 288.765961 L 183.326233 364.238403 C 183.326233 364.903961 183.86702 365.443451 184.534546 365.443451 L 195.610382 365.443451 C 196.277924 365.443451 196.818695 364.903961 196.818695 364.238403 L 196.818695 319.317749 L 242.534027 368.610931 C 243.280014 369.415527 244.628571 368.888977 244.628571 367.792358 L 244.628571 292.319946 C 244.628571 291.654358 244.087799 291.114868 243.420258 291.114868 L 232.443634 291.114868 C 231.776627 291.114868 231.235855 291.654358 231.235855 292.319946 L 231.235855 337.146149 Z"/>
    <path id="path4" fill="#000000" stroke="none" d="M 256.374023 365.44397 L 268.266998 365.44397 C 268.73819 365.44397 269.166229 365.170593 269.363647 364.743652 L 278.273254 345.493378 L 306.763641 345.493378 L 315.472229 364.734833 C 315.667542 365.166443 316.098175 365.44397 316.572998 365.44397 L 329.477905 365.44397 C 330.368317 365.44397 330.953247 364.514374 330.565186 363.714447 L 294.013489 288.246704 C 293.574036 287.338898 292.277924 287.338898 291.83844 288.246704 L 255.28624 363.714447 C 254.898712 364.514374 255.483124 365.44397 256.374023 365.44397 Z M 283.858185 333.549652 L 292.712708 314.378723 L 301.401031 333.549652 L 283.858185 333.549652 Z"/>
    <path id="path5" fill="#000000" stroke="none" d="M 359.435333 291.11438 L 341.158417 291.11438 C 340.490906 291.11438 339.950134 291.65387 339.950134 292.319946 L 339.950134 364.238403 C 339.950134 364.903961 340.490906 365.443451 341.158417 365.443451 L 359.435333 365.443451 C 382.094025 365.443451 396.174011 351.202209 396.174011 328.273987 C 396.174011 305.345764 382.094025 291.11438 359.435333 291.11438 Z M 359.435333 352.69101 L 353.541809 352.69101 L 353.541809 303.767181 L 359.435333 303.767181 C 374.144958 303.767181 382.582336 312.700562 382.582336 328.273987 C 382.582336 343.791351 374.144958 352.69101 359.435333 352.69101 Z"/>
</svg>
